<svg width="800" height="600" viewBox="0 0 800 600" fill="none" xmlns="http://www.w3.org/2000/svg">
  <!-- Background Elements -->
  <rect width="800" height="600" fill="#F9FAFB"/>
  
  <!-- Decorative Circles -->
  <circle cx="200" cy="150" r="100" fill="#EEF2FF" opacity="0.8"/>
  <circle cx="600" cy="450" r="120" fill="#EEF2FF" opacity="0.6"/>
  
  <!-- Website Illustration -->
  <rect x="250" y="100" width="300" height="400" rx="8" fill="white" stroke="#E5E7EB" stroke-width="2"/>
  
  <!-- Browser Header -->
  <rect x="250" y="100" width="300" height="40" rx="8" fill="#F3F4F6"/>
  <circle cx="270" cy="120" r="6" fill="#EF4444"/>
  <circle cx="290" cy="120" r="6" fill="#F59E0B"/>
  <circle cx="310" cy="120" r="6" fill="#10B981"/>
  
  <!-- Content Elements -->
  <rect x="270" y="160" width="260" height="20" rx="4" fill="#E5E7EB"/>
  <rect x="270" y="190" width="200" height="20" rx="4" fill="#E5E7EB"/>
  <rect x="270" y="220" width="240" height="20" rx="4" fill="#E5E7EB"/>
  
  <rect x="270" y="260" width="260" height="100" rx="4" fill="#EEF2FF"/>
  <rect x="290" y="280" width="220" height="20" rx="4" fill="#E5E7EB"/>
  <rect x="290" y="310" width="180" height="20" rx="4" fill="#E5E7EB"/>
  <rect x="290" y="340" width="200" height="20" rx="4" fill="#E5E7EB"/>
  
  <rect x="270" y="380" width="120" height="40" rx="4" fill="#4F46E5"/>
  <rect x="410" y="380" width="120" height="40" rx="4" fill="#E5E7EB"/>
  
  <!-- Decorative Elements -->
  <path d="M100 300 C 150 250, 200 350, 250 300" stroke="#4F46E5" stroke-width="3" fill="none" opacity="0.5"/>
  <path d="M550 200 C 600 150, 650 250, 700 200" stroke="#4F46E5" stroke-width="3" fill="none" opacity="0.5"/>
</svg> 